<svg width="1475" height="806" viewBox="0 0 1475 806" fill="none" xmlns="http://www.w3.org/2000/svg">
<path d="M292.785 684.563C317.907 684.563 338.342 665.081 338.342 638.348V563.934H314.465V638.274C314.465 651.092 304.138 660.54 292.712 660.54C281.286 660.54 271.105 651.165 271.105 638.274V563.934H247.229V638.348C247.229 665.081 267.663 684.563 292.785 684.563ZM357.824 682H381.555V563.934H357.824V682ZM502.624 684.271C520.495 684.271 533.166 676.507 543.566 666.18L529.943 646.99C522.106 654.681 512.731 660.467 501.892 660.467C483.654 660.467 464.904 644.207 464.904 623.187C464.904 602.532 482.995 585.687 501.965 585.687C512.146 585.687 521.813 590.521 529.87 598.431L543.566 579.754C531.188 567.815 517.565 561.736 502.185 561.517C468.933 561.517 440.881 589.715 440.881 623.04C440.881 656.219 468.566 684.271 502.624 684.271ZM580.627 658.416V563.934H556.896V682H628.088V658.416H580.627ZM693.933 684.271C727.771 684.271 755.456 656.731 755.456 623.113C755.456 589.202 727.771 561.517 694.006 561.517C660.241 561.517 632.629 589.202 632.629 623.113C632.629 656.731 660.241 684.271 693.933 684.271ZM693.933 660.247C673.352 660.247 656.579 643.475 656.579 622.967C656.579 602.312 673.352 585.467 693.933 585.467C714.587 585.467 731.433 602.312 731.433 622.967C731.433 643.475 714.587 660.247 693.933 660.247ZM842.028 563.641V629.778L772.082 561.736H770.91V682.146H794.641V616.009L864.733 684.197H865.832V563.641H842.028ZM957.531 587.298V563.934H886.34V682H957.531V658.416H910.07V634.026H950.793V610.369H910.07V587.298H957.531Z" fill="white"/>
<path d="M1034.8 382.4C1020.4 385.7 982.5 387.6 982.5 387.6L977.7 402.6C977.7 402.6 996.6 401 1010.4 402.4C1010.4 402.4 1014.9 401.9 1015.4 407.5C1015.49 411.105 1015.36 414.712 1015 418.3C1015 418.3 1014.7 421.7 1009.9 422.5C1004.7 423.4 969.1 424.7 969.1 424.7L963.3 444.2C963.3 444.2 961.2 448.7 966 447.4C970.5 446.2 1007.8 439.2 1012.7 440.2C1017.9 441.5 1023.7 448.4 1022 454.8C1020 462.6 982.8 486.4 960.1 484.7C960.1 484.7 948.2 485.5 938.1 469.4C928.7 454.1 941.7 425 941.7 425C941.7 425 935.8 411.4 940.1 406.9C940.1 406.9 942.7 404.6 950.1 404L959.2 385.1C959.2 385.1 948.8 385.8 942.6 378.2C936.8 370.9 936.4 367.6 940.8 365.6C945.5 363.3 988.8 355.4 1018.6 356.4C1018.6 356.4 1029 355.4 1037.9 373.4C1037.8 373.4 1042.2 380.7 1034.8 382.4V382.4ZM922.7 455C918.9 464 908.8 473.6 896.3 467.6C883.8 461.6 864.2 421.3 864.2 421.3C864.2 421.3 856.7 406.3 855.3 406.6C855.3 406.6 853.7 403.7 852.7 420.1C851.7 436.5 852.9 468.4 846.4 473.4C840.2 478.4 832.7 476.4 828.8 470.5C825.3 464.7 823.8 450.9 825.7 426.7C828 402.5 833.6 376.7 840.8 368.6C848 360.5 853.8 366.4 856 368.5C856 368.5 865.6 377.2 881.5 402.8L884.3 407.5C884.3 407.5 898.7 431.7 900.2 431.6C900.2 431.6 901.4 432.7 902.4 431.9C903.9 431.5 903.3 423.7 903.3 423.7C903.3 423.7 900.3 397.4 887.2 352.8C887.2 352.8 885.2 347.2 886.6 342C888 336.8 893.2 339.2 893.2 339.2C893.2 339.2 913.6 349.4 923.4 382.6C933.1 416.1 926.5 446 922.7 455ZM822.5 369.7C820.8 373.1 819.8 378 811.2 379.3C811.2 379.3 728.9 384.9 725 390.7C725 390.7 722.1 394.1 726.6 395.1C731.1 396.1 749.7 398.5 758.7 399C768.3 399.1 800.7 399.4 812.3 413.9C812.3 413.9 819.2 420.8 818.9 436.4C818.6 452.4 815.8 458 809.6 463.8C803.1 469.2 747.3 494.2 711.3 455.8C711.3 455.8 694.7 437.3 717 423.3C717 423.3 733.1 413.6 774 425C774 425 786.4 429.5 785.8 434C785.1 438.8 775.6 443.9 761.8 443.6C748.4 443.2 738.6 436.8 740.5 437.8C742.3 438.5 726.1 430 721.1 435.8C716.1 441.1 717.3 444.4 722.2 447.7C734.7 454.8 783 452.3 797.4 436.3C797.4 436.3 803.1 429.8 794.4 424.5C785.7 419.5 760.8 416.5 751.1 416C741.8 415.5 707.2 416.1 702.2 406.9C702.2 406.9 697.2 400.7 702.7 383.1C708.5 364.7 748.8 357.6 766.2 356C766.2 356 814.1 354.3 822.9 364.1C823.495 365.948 823.351 367.955 822.5 369.7V369.7ZM686.5 477.6C680.7 481.9 668.4 480 664.9 475.2C661.4 470.9 660.2 453.8 660.9 427C661.6 399.9 662.2 366.3 668 361C674.2 355.6 678 360.3 680.4 364C683 367.6 686.1 371.6 686.8 380.1C687.5 388.6 689.4 433.2 689.4 433.2C689.4 433.2 692 473.4 686.5 477.6V477.6ZM699 333.8C682.1 339.4 670.5 337.5 660.7 333.3C656.4 340.8 653.9 343.1 650.6 343.6C645.8 344.1 641.5 336.4 640.7 333.9C639.9 332 637.6 328.8 640.4 321.2C630.8 312.6 630.1 301 631.7 293.2C634.1 284.2 650.3 250 699.6 246C699.6 246 723.7 244.2 727.8 257.1H728.5C728.5 257.1 751.9 257.2 751.4 278C751.1 298.9 725.4 324.9 699 333.8V333.8ZM653 287.5C648 295.5 647.8 300.3 650.1 303.6C655.8 294.9 666.2 281.2 681.5 270.8C669.7 271.8 659.8 276.9 653 287.5ZM721.1 274.1C705.6 276.4 681.6 297.2 670.2 314.2C687.7 317.4 718.6 316.2 732.3 288.3C732.2 288.3 738.8 271 721.1 274.1V274.1ZM1141.9 435.2C1132.6 451.4 1106.5 485.2 1071.7 477.3C1060.2 505.2 1050.6 533.3 1045.1 575.5C1045.1 575.5 1043.9 583.7 1037.1 580.8C1030.4 578.4 1019.2 567.2 1017 551.7C1014.6 531.3 1023.7 496.8 1042.2 457.3C1036.8 448.5 1033.1 435.9 1036.3 418C1036.3 418 1041 384.8 1074.3 354.8C1074.3 354.8 1078.3 351.3 1080.6 352.4C1083.2 353.5 1082 364.3 1079.9 369.5C1077.8 374.7 1062.9 400.5 1062.9 400.5C1062.9 400.5 1053.6 417.9 1056.2 431.6C1073.7 404.7 1113.5 350.4 1138.2 367.5C1146.5 373.4 1150.3 386.3 1150.3 400.2C1150.2 412.5 1147.3 425.5 1141.9 435.2V435.2ZM1134.7 392.6C1134.7 392.6 1133.3 381.9 1122.9 393.7C1113.9 403.6 1097.7 422.3 1084.6 447.6C1098.3 446.1 1111.5 438.6 1115.5 434.8C1122 429 1137.1 413.4 1134.7 392.6V392.6ZM649.2 406.2C647.3 430.4 638 471.1 572.1 491.2C528.6 504.3 487.5 498 465.1 492.3C464.6 501.2 463.6 505 462.2 506.5C460.3 508.4 446.1 516.6 438.3 505C434.8 499.5 433 489.5 432 480.6C381.6 457.4 358.4 424 357.5 422.5C356.4 421.4 344.9 409.4 356.4 394.7C367.2 381.4 402.5 368.1 434.3 362.7C435.4 335.5 438.6 315 442.4 305.6C447 294.7 452.8 304.5 457.8 311.9C462 317.4 464.5 341.1 464.7 360C485.5 359 497.8 360.5 521 364.7C551.2 370.2 571.4 385.6 569.6 403.1C568.3 420.3 552.5 427.4 546.5 427.9C540.2 428.4 530.4 423.9 530.4 423.9C523.7 420.7 529.9 417.9 538 414.4C546.8 410.1 544.8 405.7 544.8 405.7C541.5 396.1 502.3 389.4 463.3 389.4C463.1 410.9 464.2 446.6 464.7 467.4C492 472.6 512.4 471.6 512.4 471.6C512.4 471.6 612 468.8 615 405.2C618 341.6 515.7 280.4 440 261C364.4 241.2 321.6 255 317.9 256.9C313.9 258.9 317.6 259.5 317.6 259.5C321.408 260.195 325.154 261.198 328.8 262.5C336.3 264.9 330.5 268.8 330.5 268.8C317.6 272.9 303.1 270.3 300.3 264.4C297.5 258.5 302.2 253.2 307.6 245.6C313 237.6 318.9 237.9 318.9 237.9C412.4 205.5 526.3 264.1 526.3 264.1C633 318.2 651.2 381.6 649.2 406.2ZM367 402.9C356.4 408.1 363.7 415.6 363.7 415.6C383.6 437 408.1 450.4 431.4 458.7C434.1 421.8 433.7 408.8 434 390.2C397.6 392.7 376.6 398.5 367 402.9Z" fill="white"/>
<path d="M1339.9 395.3V408.5C1339.91 409.184 1339.77 409.863 1339.51 410.496C1339.26 411.129 1338.87 411.705 1338.39 412.189C1337.9 412.673 1337.33 413.056 1336.7 413.315C1336.06 413.574 1335.38 413.705 1334.7 413.7H1271.8C1271.8 417 1271.9 419.9 1271.9 422.6C1271.99 440.403 1271.09 458.197 1269.2 475.9C1269.08 477.174 1268.49 478.359 1267.55 479.227C1266.61 480.094 1265.38 480.583 1264.1 480.6H1250.5C1249.82 480.601 1249.15 480.458 1248.53 480.183C1247.91 479.907 1247.35 479.504 1246.9 479C1246.44 478.491 1246.09 477.888 1245.88 477.232C1245.67 476.576 1245.61 475.882 1245.7 475.2C1247.61 457.733 1248.55 440.172 1248.5 422.6C1248.5 419.8 1248.5 416.9 1248.4 413.7H1186.2C1185.52 413.705 1184.84 413.574 1184.2 413.315C1183.57 413.056 1183 412.673 1182.51 412.189C1182.03 411.705 1181.64 411.129 1181.38 410.496C1181.13 409.863 1180.99 409.184 1181 408.5V395.3C1180.99 394.616 1181.13 393.937 1181.38 393.304C1181.64 392.67 1182.03 392.095 1182.51 391.611C1183 391.127 1183.57 390.744 1184.2 390.485C1184.84 390.225 1185.52 390.095 1186.2 390.1H1247.5C1246.26 368.872 1243.55 347.754 1239.4 326.9C1239.29 326.27 1239.32 325.625 1239.47 325.005C1239.63 324.385 1239.91 323.805 1240.3 323.3C1240.69 322.802 1241.2 322.4 1241.77 322.123C1242.34 321.846 1242.96 321.701 1243.6 321.7H1258.3C1259.41 321.705 1260.49 322.097 1261.35 322.808C1262.21 323.52 1262.79 324.506 1263 325.6C1267.04 346.907 1269.71 368.451 1271 390.1H1334.7C1336.07 390.123 1337.38 390.678 1338.35 391.649C1339.32 392.619 1339.88 393.928 1339.9 395.3V395.3Z" fill="white"/>
<path d="M1254.3 290.6C1224.25 216.695 1174.63 152.377 1110.76 104.562C1046.9 56.7473 971.208 27.2434 891.832 19.2225C812.455 11.2016 732.394 24.967 660.255 59.0388C588.115 93.1107 526.627 146.2 482.4 212.6C481.961 213.253 481.678 213.999 481.574 214.78C481.47 215.56 481.547 216.354 481.8 217.1C482.035 217.852 482.449 218.536 483.007 219.093C483.564 219.651 484.248 220.065 485 220.3L496.4 224.2C497.05 224.39 497.723 224.491 498.4 224.5C499.442 224.486 500.465 224.224 501.387 223.737C502.308 223.251 503.101 222.552 503.7 221.7C541.794 165.564 593.053 119.609 653 87.8482C712.947 56.0878 779.759 39.4885 847.6 39.5C929.335 39.514 1009.26 63.6012 1077.39 108.755C1145.52 153.909 1198.84 218.129 1230.7 293.4C1231.15 294.489 1231.91 295.42 1232.89 296.078C1233.87 296.737 1235.02 297.092 1236.2 297.1H1249.8C1250.57 297.108 1251.34 296.92 1252.02 296.553C1252.7 296.186 1253.28 295.651 1253.7 295C1254.18 294.387 1254.49 293.655 1254.6 292.882C1254.7 292.108 1254.6 291.32 1254.3 290.6ZM498.4 221.1C498.091 221.081 497.788 221.014 497.5 220.9C497.788 221.014 498.091 221.081 498.4 221.1ZM1233.4 295.3C1233.68 295.504 1233.98 295.672 1234.3 295.8C1234 295.6 1233.7 295.5 1233.4 295.3Z" fill="url(#paint0_radial_621_13)"/>
<defs>
<radialGradient id="paint0_radial_621_13" cx="0" cy="0" r="1" gradientUnits="userSpaceOnUse" gradientTransform="translate(1241.52 296.6) scale(760.12)">
<stop offset="0.01" stop-color="white"/>
<stop offset="0.03" stop-color="#CBFFFF"/>
<stop offset="0.06" stop-color="#96FFFF"/>
<stop offset="0.08" stop-color="#68FFFF"/>
<stop offset="0.11" stop-color="#43FFFF"/>
<stop offset="0.14" stop-color="#25FFFF"/>
<stop offset="0.16" stop-color="#11FFFF"/>
<stop offset="0.19" stop-color="#04FFFF"/>
<stop offset="0.22" stop-color="#00FFFF"/>
<stop offset="1" stop-color="#0000FF" stop-opacity="0"/>
</radialGradient>
</defs>
</svg>
